<?xml version="1.0" standalone="no"?>
<!DOCTYPE svg PUBLIC "-//W3C//DTD SVG 1.1//EN"
"http://www.w3.org/Graphics/SVG/1.1/DTD/svg11.dtd">
<!-- Creator: fig2dev Version 3.2 Patchlevel 5e -->
<!-- CreationDate: Mon Mar 14 21:09:11 2016 -->
<!-- Magnification: 2.100 -->
<svg	xmlns="http://www.w3.org/2000/svg"
	xmlns:xlink="http://www.w3.org/1999/xlink"
	width="5.4in" height="4.8in"
	viewBox="338 1169 6433 5759">
<g style="stroke-width:.025in; fill:none">
<!-- Circle -->
<circle cx="1133" cy="3212" r="212"
 style="stroke:#000000;stroke-width:15;"/>
<!-- Circle -->
<circle cx="4629" cy="2551" r="212"
 style="stroke:#000000;stroke-width:15;"/>
<!-- Circle -->
<circle cx="6141" cy="2362" r="212"
 style="stroke:#000000;stroke-width:15;"/>
<!-- Circle -->
<circle cx="6425" cy="4251" r="212"
 style="stroke:#000000;stroke-width:15;"/>
<!-- Line -->
<polyline points="4818,2551
5919,2366
" style="stroke:#000000;stroke-width:15;
stroke-linejoin:miter; stroke-linecap:butt;
"/>
<!-- Arrowhead on XXXpoint 4818 2551 - 5982 2355-->
<polyline points="5709 2465
5948 2362
5688 2341
" style="stroke:#000000;stroke-width:15;stroke-miterlimit:8;
"/>
<!-- Line -->
<polyline points="1322,3118
1322,3113
1320,3105
1320,3090
1318,3067
1316,3038
1314,3002
1312,2960
1312,2916
1314,2870
1318,2824
1324,2777
1335,2733
1352,2693
1373,2656
1402,2622
1438,2593
1484,2572
1539,2557
1606,2551
1667,2555
1730,2565
1791,2582
1849,2603
1902,2630
1948,2660
1990,2691
2028,2725
2059,2759
2089,2794
2116,2830
2141,2866
2166,2901
2196,2937
2225,2971
2259,3004
2299,3034
2343,3063
2395,3088
2452,3107
2517,3122
2588,3130
2664,3128
2740,3118
2819,3095
2889,3063
2950,3023
3000,2977
3038,2931
3065,2880
3084,2830
3095,2780
3101,2729
3103,2679
3101,2628
3101,2580
3103,2530
3107,2479
3116,2431
3132,2381
3155,2334
3187,2290
3229,2248
3279,2215
3338,2187
3401,2173
3466,2171
3527,2181
3582,2200
3632,2227
3672,2259
3708,2295
3737,2332
3760,2372
3779,2412
3796,2454
3811,2496
3825,2538
3842,2580
3859,2624
3880,2666
3907,2710
3937,2752
3972,2794
4014,2834
4060,2872
4109,2903
4157,2929
4205,2948
4249,2956
4285,2956
4317,2950
4342,2937
4363,2918
4380,2897
4394,2872
4405,2843
4413,2813
4422,2784
4428,2754
4432,2725
4434,2702
4436,2681
4436,2677
" style="stroke:#000000;stroke-width:15;
stroke-linejoin:bevel; stroke-linecap:butt;
"/>
<!-- Arrowhead on XXXpoint 4436 2681 - 4443 2614-->
<polyline points="4476 2903
4438 2647
4350 2891
" style="stroke:#000000;stroke-width:15;stroke-miterlimit:8;
"/>
<!-- Line -->
<polyline points="6236,2551
6240,2551
6250,2553
6267,2555
6290,2557
6322,2563
6358,2570
6395,2576
6437,2586
6477,2597
6515,2612
6549,2628
6578,2649
6603,2675
6620,2704
6630,2742
6628,2784
6614,2834
6591,2882
6557,2931
6517,2975
6475,3017
6431,3050
6383,3080
6337,3105
6290,3128
6242,3147
6196,3166
6150,3183
6103,3202
6059,3225
6015,3250
5973,3279
5935,3313
5902,3355
5877,3399
5860,3447
5858,3496
5870,3540
5893,3580
5927,3611
5967,3634
6011,3651
6055,3664
6101,3668
6150,3672
6196,3670
6244,3668
6290,3668
6339,3666
6389,3666
6437,3670
6488,3676
6538,3689
6586,3706
6633,3727
6675,3752
6708,3779
6735,3815
6746,3846
6742,3876
6727,3903
6704,3928
6675,3951
6641,3972
6601,3991
6563,4010
6523,4025
6490,4039
6456,4050
" style="stroke:#000000;stroke-width:15;
stroke-linejoin:bevel; stroke-linecap:butt;
"/>
<!-- Arrowhead on XXXpoint 6490 4039 - 6393 4073-->
<polyline points="6643 3920
6427 4062
6685 4037
" style="stroke:#000000;stroke-width:15;stroke-miterlimit:8;
"/>
<!-- Line -->
<polyline points="1228,3401
1228,3405
1230,3414
1230,3428
1234,3454
1236,3487
1243,3529
1249,3584
1255,3645
1264,3714
1274,3790
1285,3871
1297,3955
1310,4041
1324,4130
1341,4216
1358,4304
1377,4388
1398,4470
1419,4550
1444,4625
1471,4699
1501,4766
1534,4831
1570,4888
1610,4936
1654,4978
1700,5007
1757,5026
1812,5028
1862,5018
1910,4993
1950,4959
1986,4917
2015,4871
2040,4818
2061,4762
2080,4703
2095,4644
2110,4581
2124,4520
2141,4459
2158,4401
2181,4342
2206,4285
2238,4233
2276,4184
2320,4142
2370,4107
2427,4081
2488,4065
2551,4062
2612,4073
2670,4096
2719,4128
2763,4165
2796,4212
2822,4260
2838,4312
2851,4365
2857,4422
2859,4476
2859,4533
2857,4590
2857,4646
2857,4703
2859,4760
2868,4814
2880,4867
2901,4917
2931,4965
2969,5009
3017,5047
3074,5077
3139,5096
3212,5102
3281,5096
3351,5079
3416,5054
3475,5020
3527,4980
3571,4934
3609,4886
3640,4835
3666,4781
3687,4726
3703,4671
3718,4615
3733,4558
3745,4501
3762,4447
3779,4392
3802,4338
3832,4287
3867,4237
3909,4191
3962,4151
4023,4115
4092,4086
4170,4067
4256,4058
4346,4062
4430,4079
4512,4104
4587,4138
4657,4180
4720,4226
4774,4275
4820,4327
4860,4380
4894,4436
4921,4491
4944,4548
4965,4604
4982,4659
4999,4716
5016,4772
5033,4829
5051,4886
5075,4942
5100,4997
5131,5054
5167,5108
5209,5161
5257,5211
5312,5259
5373,5301
5438,5337
5505,5366
5574,5385
5650,5394
5721,5387
5784,5369
5841,5341
5891,5303
5938,5259
5977,5207
6013,5150
6045,5089
6074,5026
6099,4959
6124,4890
6145,4820
6164,4753
6181,4688
6196,4629
6206,4577
6217,4533
6225,4497
6229,4472
" style="stroke:#000000;stroke-width:15;
stroke-linejoin:bevel; stroke-linecap:butt;
"/>
<!-- Arrowhead on XXXpoint 6225 4497 - 6240 4409-->
<polyline points="6253 4701
6234 4443
6129 4680
" style="stroke:#000000;stroke-width:15;stroke-miterlimit:8;
"/>
<!-- Line -->
<polygon points="1795,1606
1914,1564
2038,1524
2160,1488
2278,1457
2393,1427
2502,1402
2605,1379
2700,1358
2788,1339
2870,1322
2945,1308
3015,1293
3080,1280
3141,1268
3197,1257
3250,1247
3302,1236
3355,1228
3405,1219
3456,1213
3510,1207
3565,1201
3624,1196
3687,1194
3754,1194
3827,1194
3905,1198
3989,1205
4079,1215
4176,1228
4279,1247
4384,1268
4493,1297
4604,1331
4713,1371
4818,1417
4928,1476
5028,1541
5114,1608
5188,1675
5251,1740
5299,1803
5337,1862
5364,1914
5383,1965
5394,2009
5396,2051
5394,2089
5385,2122
5375,2156
5362,2187
5345,2221
5331,2253
5314,2286
5299,2322
5287,2364
5276,2408
5270,2458
5268,2515
5270,2580
5276,2654
5291,2735
5310,2826
5335,2927
5364,3036
5400,3151
5438,3275
5480,3401
5520,3521
5558,3636
5595,3748
5635,3850
5673,3947
5711,4033
5749,4111
5786,4180
5822,4239
5860,4289
5898,4335
5933,4373
5969,4405
6005,4434
6040,4459
6076,4482
6110,4503
6143,4524
6175,4548
6206,4571
6234,4598
6261,4629
6284,4665
6305,4705
6322,4753
6332,4806
6339,4869
6339,4938
6330,5014
6313,5098
6286,5188
6250,5285
6202,5381
6141,5480
6076,5566
6005,5648
5929,5725
5851,5797
5772,5864
5692,5925
5616,5982
5541,6030
5469,6076
5402,6116
5337,6150
5276,6181
5219,6208
5163,6234
5110,6255
5060,6274
5009,6290
4961,6307
4913,6322
4865,6337
4812,6351
4760,6366
4705,6381
4646,6397
4583,6414
4516,6431
4443,6450
4363,6471
4277,6494
4184,6517
4083,6542
3976,6567
3861,6595
3739,6620
3613,6645
3481,6670
3346,6691
3212,6708
3063,6721
2922,6729
2788,6733
2664,6731
2551,6727
2450,6721
2362,6712
2282,6704
2215,6691
2156,6681
2108,6668
2066,6656
2030,6643
2001,6630
1973,6618
1950,6603
1929,6591
1908,6576
1885,6559
1864,6542
1837,6525
1807,6507
1776,6483
1736,6460
1692,6435
1641,6406
1583,6374
1520,6339
1448,6299
1373,6255
1291,6208
1207,6158
1121,6103
1039,6047
946,5975
862,5904
789,5835
728,5772
680,5715
640,5667
608,5625
587,5589
573,5560
564,5534
560,5516
560,5499
562,5486
566,5471
571,5459
577,5442
581,5425
583,5402
585,5373
583,5339
579,5295
571,5243
560,5180
545,5108
529,5024
510,4932
491,4831
472,4724
457,4617
445,4510
434,4411
426,4321
417,4239
411,4167
405,4107
401,4056
394,4012
388,3979
384,3949
380,3924
373,3901
369,3882
367,3861
363,3840
363,3815
363,3785
365,3750
369,3706
377,3653
390,3592
405,3519
426,3437
451,3344
485,3244
522,3134
566,3023
613,2920
661,2822
707,2729
751,2645
791,2570
827,2502
854,2444
879,2391
896,2349
911,2311
921,2280
928,2253
932,2229
934,2208
936,2187
940,2169
946,2150
955,2129
970,2106
991,2080
1018,2051
1054,2015
1102,1977
1161,1933
1232,1885
1318,1833
1417,1778
1532,1719
1658,1662
1795,1606
" style="stroke:#000000;stroke-width:15;
stroke-linejoin:bevel; stroke-linecap:butt;
stroke-dasharray:83 83;"/>
<!-- Text -->
<text xml:space="preserve" x="1039" y="3307" fill="#000000"  font-family="Times" font-style="normal" font-weight="normal" font-size="252" text-anchor="start">s</text>
<!-- Text -->
<text xml:space="preserve" x="6330" y="4346" fill="#000000"  font-family="Times" font-style="normal" font-weight="normal" font-size="252" text-anchor="start">x</text>
<!-- Text -->
<text xml:space="preserve" x="4535" y="2645" fill="#000000"  font-family="Times" font-style="normal" font-weight="normal" font-size="252" text-anchor="start">y</text>
<!-- Text -->
<text xml:space="preserve" x="6047" y="2456" fill="#000000"  font-family="Times" font-style="normal" font-weight="normal" font-size="252" text-anchor="start">z</text>
<!-- Text -->
<text xml:space="preserve" x="1889" y="6897" fill="#000000"  font-family="Times" font-style="normal" font-weight="normal" font-size="252" text-anchor="start">S</text>
</g>
</svg>
